<svg id="visual" viewBox="0 0 900 600" width="900" height="600" xmlns="http://www.w3.org/2000/svg" xmlns:xlink="http://www.w3.org/1999/xlink" version="1.1"><rect x="0" y="0" width="900" height="600" fill="#50b2b6"></rect><path d="M562 600L574.8 585.7C587.7 571.3 613.3 542.7 629.5 514.2C645.7 485.7 652.3 457.3 644.5 428.8C636.7 400.3 614.3 371.7 595.8 343C577.3 314.3 562.7 285.7 563.7 257C564.7 228.3 581.3 199.7 596.7 171.2C612 142.7 626 114.3 626.2 85.8C626.3 57.3 612.7 28.7 605.8 14.3L599 0L900 0L900 14.3C900 28.7 900 57.3 900 85.8C900 114.3 900 142.7 900 171.2C900 199.7 900 228.3 900 257C900 285.7 900 314.3 900 343C900 371.7 900 400.3 900 428.8C900 457.3 900 485.7 900 514.2C900 542.7 900 571.3 900 585.7L900 600Z" fill="#fa7268"></path><path d="M697 600L686.3 585.7C675.7 571.3 654.3 542.7 641.2 514.2C628 485.7 623 457.3 629.7 428.8C636.3 400.3 654.7 371.7 664.2 343C673.7 314.3 674.3 285.7 672 257C669.7 228.3 664.3 199.7 662.7 171.2C661 142.7 663 114.3 670.3 85.8C677.7 57.3 690.3 28.7 696.7 14.3L703 0L900 0L900 14.3C900 28.7 900 57.3 900 85.8C900 114.3 900 142.7 900 171.2C900 199.7 900 228.3 900 257C900 285.7 900 314.3 900 343C900 371.7 900 400.3 900 428.8C900 457.3 900 485.7 900 514.2C900 542.7 900 571.3 900 585.7L900 600Z" fill="#ef5f67"></path><path d="M749 600L735.2 585.7C721.3 571.3 693.7 542.7 686.5 514.2C679.3 485.7 692.7 457.3 693.5 428.8C694.3 400.3 682.7 371.7 685.3 343C688 314.3 705 285.7 719.7 257C734.3 228.3 746.7 199.7 739.3 171.2C732 142.7 705 114.3 690.7 85.8C676.3 57.3 674.7 28.7 673.8 14.3L673 0L900 0L900 14.3C900 28.7 900 57.3 900 85.8C900 114.3 900 142.7 900 171.2C900 199.7 900 228.3 900 257C900 285.7 900 314.3 900 343C900 371.7 900 400.3 900 428.8C900 457.3 900 485.7 900 514.2C900 542.7 900 571.3 900 585.7L900 600Z" fill="#e34c67"></path><path d="M776 600L770.5 585.7C765 571.3 754 542.7 745.7 514.2C737.3 485.7 731.7 457.3 736.3 428.8C741 400.3 756 371.7 763.3 343C770.7 314.3 770.3 285.7 774 257C777.7 228.3 785.3 199.7 777.5 171.2C769.7 142.7 746.3 114.3 738.8 85.8C731.3 57.3 739.7 28.7 743.8 14.3L748 0L900 0L900 14.3C900 28.7 900 57.3 900 85.8C900 114.3 900 142.7 900 171.2C900 199.7 900 228.3 900 257C900 285.7 900 314.3 900 343C900 371.7 900 400.3 900 428.8C900 457.3 900 485.7 900 514.2C900 542.7 900 571.3 900 585.7L900 600Z" fill="#d53867"></path><path d="M855 600L854.7 585.7C854.3 571.3 853.7 542.7 854.7 514.2C855.7 485.7 858.3 457.3 856 428.8C853.7 400.3 846.3 371.7 838.3 343C830.3 314.3 821.7 285.7 822.8 257C824 228.3 835 199.7 843.2 171.2C851.3 142.7 856.7 114.3 850.5 85.8C844.3 57.3 826.7 28.7 817.8 14.3L809 0L900 0L900 14.3C900 28.7 900 57.3 900 85.8C900 114.3 900 142.7 900 171.2C900 199.7 900 228.3 900 257C900 285.7 900 314.3 900 343C900 371.7 900 400.3 900 428.8C900 457.3 900 485.7 900 514.2C900 542.7 900 571.3 900 585.7L900 600Z" fill="#c62368"></path></svg>