<svg id="visual" viewBox="0 0 900 600" width="900" height="600" xmlns="http://www.w3.org/2000/svg" xmlns:xlink="http://www.w3.org/1999/xlink" version="1.1"><rect x="0" y="0" width="900" height="600" fill="#140021"></rect><path d="M0 278L129 278L129 263L257 263L257 311L386 311L386 339L514 339L514 265L643 265L643 258L771 258L771 274L900 274L900 322L900 601L900 601L771 601L771 601L643 601L643 601L514 601L514 601L386 601L386 601L257 601L257 601L129 601L129 601L0 601Z" fill="#50b2b6"></path><path d="M0 378L129 378L129 453L257 453L257 365L386 365L386 435L514 435L514 450L643 450L643 407L771 407L771 439L900 439L900 447L900 601L900 601L771 601L771 601L643 601L643 601L514 601L514 601L386 601L386 601L257 601L257 601L129 601L129 601L0 601Z" fill="#369598"></path><path d="M0 513L129 513L129 497L257 497L257 488L386 488L386 508L514 508L514 497L643 497L643 527L771 527L771 470L900 470L900 470L900 601L900 601L771 601L771 601L643 601L643 601L514 601L514 601L386 601L386 601L257 601L257 601L129 601L129 601L0 601Z" fill="#18797c"></path></svg>